<svg width="41" height="33" viewBox="0 0 41 33" fill="none" xmlns="http://www.w3.org/2000/svg">
<path d="M15.2008 1.20832C8.0936 2.45832 2.8775 6.18749 1.38125 11.0625C0.653911 13.3542 0.882504 15.1875 2.06704 16.75C3.06454 18.0417 4.29063 18.6042 6.22329 18.625C8.0936 18.625 9.38204 18.2708 12.8109 16.8125C15.7827 15.5417 16.5308 15.3125 18.7128 15.0417C20.7286 14.7917 22.6613 14.9792 23.2639 15.4792C23.7211 15.875 23.7211 15.875 23.3263 16.1875C23.0145 16.4167 22.3703 16.5 20.8325 16.5C17.2997 16.5 14.8475 17.4792 14.2864 19.125C13.9123 20.1875 14.0994 20.9792 14.8891 21.7083C15.8034 22.5625 17.1334 22.8542 19.8766 22.8333C26.1109 22.75 30.0594 20.125 30.0594 16.0625C30.0594 14.7708 29.2697 12.9792 28.293 12.0417C26.2772 10.0625 23.6172 9.33332 18.9414 9.47915C15.4086 9.58332 14.2448 9.83332 11.0445 11.1875C8.34297 12.3333 8.34297 12.3125 8.05204 12.125C7.03375 11.5208 9.88079 9.41665 13.2681 8.24999C20.8117 5.68749 30.3295 7.93749 33.0311 12.9167C34.1948 15.0417 34.0078 16.375 32.2414 19C30.3711 21.7292 30.5166 23.6875 32.8856 27.6875C33.6338 28.9375 34.1948 30.0833 34.1741 30.25C34.1325 30.4167 33.8623 30.5833 33.5714 30.625C33.0311 30.6875 32.1583 30.0625 28.7086 27.1042C27.2955 25.8958 25.4875 24.9792 23.825 24.6458C23.2016 24.5208 21.2273 24.4375 19.4609 24.4792C16.7386 24.5208 16.0528 24.4583 15.0138 24.125C12.8317 23.3958 11.668 21.7917 11.9173 19.875C12.0836 18.5625 10.9614 18.0833 10.3588 19.2083C10.0263 19.8542 10.1717 21.875 10.6081 22.7292C11.19 23.8333 12.9564 25.2083 14.4319 25.7083C15.6372 26.1042 16.323 26.1667 19.5648 26.1875C24.49 26.2292 25.6122 26.6042 28.3345 29.0417C32.2414 32.5625 33.9455 33.25 35.4002 31.875C36.3561 30.9792 36.0028 29.6042 33.9455 26C32.8441 24.125 32.47 22.7292 32.7609 21.6875C32.8856 21.2917 33.3844 20.375 33.9039 19.6458C35.1092 17.9167 35.5248 16.625 35.4209 14.9583C35.2131 11.75 32.3869 8.62499 28.1059 6.91665C25.3005 5.79165 24.0536 5.58332 20.0844 5.56249C16.9256 5.56249 16.1983 5.62499 14.5981 6.06249C8.88329 7.56249 5.03875 10.5417 5.95313 12.7708C6.61813 14.3542 7.7611 14.375 11.6056 12.8333C15.3047 11.3542 17.1334 11 20.3961 11.1458C25.5498 11.3333 28.3138 13.125 28.2722 16.2083C28.2306 18.8958 25.6538 20.6458 21.1234 21.0625C17.5698 21.3958 15.3047 20.7708 15.9073 19.6458C16.4061 18.7292 18.4842 18.1667 21.4767 18.1667C24.1575 18.1667 25.2797 17.4792 25.2797 15.8542C25.2797 14.0625 23.6795 13.2708 20.0844 13.2917C17.2166 13.3125 15.7827 13.6667 11.8758 15.3333C8.57157 16.7292 7.55329 17 5.95313 16.875C4.45688 16.7708 3.75032 16.3125 3.08532 15.0208C2.46188 13.8542 2.58657 12.375 3.45938 10.5C4.64391 7.95832 6.57657 6.20832 9.94313 4.64582C15.3255 2.10415 22.8691 1.89582 28.7086 4.10415C33.9039 6.06249 37.6861 10.1042 38.268 14.3333C38.5797 16.7083 37.4991 19.625 35.5664 21.5625C34.4027 22.7292 34.1741 23.3333 34.7352 23.7917C35.2131 24.1875 35.7534 23.875 37.0627 22.4792C39.5772 19.75 40.5747 16.1875 39.7227 12.8958C38.2056 7.06249 32.3661 2.56249 24.5108 1.18749C22.2872 0.791653 17.4452 0.812487 15.2008 1.20832Z" fill="white"/>
</svg>
