<svg width="33" height="32" viewBox="0 0 33 32" fill="none" xmlns="http://www.w3.org/2000/svg">
<path d="M25.311 5.536C24.9194 5.536 24.5366 5.64861 24.211 5.85958C23.8854 6.07055 23.6316 6.37041 23.4817 6.72125C23.3319 7.07208 23.2926 7.45813 23.369 7.83057C23.4454 8.20302 23.634 8.54513 23.9109 8.81365C24.1878 9.08216 24.5406 9.26502 24.9247 9.33911C25.3088 9.41319 25.7069 9.37517 26.0687 9.22985C26.4305 9.08453 26.7397 8.83844 26.9573 8.5227C27.1749 8.20695 27.291 7.83574 27.291 7.456C27.291 6.94678 27.0824 6.45843 26.7111 6.09836C26.3397 5.73829 25.8361 5.536 25.311 5.536ZM32.901 9.408C32.8689 8.08048 32.6125 6.76704 32.142 5.52C31.7225 4.45301 31.0695 3.48685 30.228 2.688C29.411 1.86788 28.4123 1.23868 27.3075 0.848C26.0249 0.377857 24.6689 0.123536 23.298 0.0959999C21.549 -8.9407e-08 20.988 0 16.5 0C12.012 0 11.451 -8.9407e-08 9.702 0.0959999C8.3311 0.123536 6.97512 0.377857 5.6925 0.848C4.58977 1.24264 3.59194 1.8713 2.772 2.688C1.92625 3.48028 1.27739 4.4487 0.8745 5.52C0.389665 6.76375 0.127396 8.07864 0.0989999 9.408C-9.22009e-08 11.104 0 11.648 0 16C0 20.352 -9.22009e-08 20.896 0.0989999 22.592C0.127396 23.9214 0.389665 25.2362 0.8745 26.48C1.27739 27.5513 1.92625 28.5197 2.772 29.312C3.59194 30.1287 4.58977 30.7574 5.6925 31.152C6.97512 31.6221 8.3311 31.8765 9.702 31.904C11.451 32 12.012 32 16.5 32C20.988 32 21.549 32 23.298 31.904C24.6689 31.8765 26.0249 31.6221 27.3075 31.152C28.4123 30.7613 29.411 30.1321 30.228 29.312C31.0732 28.5161 31.7268 27.5491 32.142 26.48C32.6125 25.233 32.8689 23.9195 32.901 22.592C32.901 20.896 33 20.352 33 16C33 11.648 33 11.104 32.901 9.408ZM29.931 22.4C29.919 23.4156 29.7293 24.4219 29.37 25.376C29.1065 26.0723 28.6834 26.7015 28.1325 27.216C27.5973 27.7448 26.9498 28.1543 26.235 28.416C25.2511 28.7644 24.2134 28.9484 23.166 28.96C21.516 29.04 20.9055 29.056 16.566 29.056C12.2265 29.056 11.616 29.056 9.966 28.96C8.87847 28.9797 7.79558 28.8174 6.765 28.48C6.08154 28.2049 5.46374 27.7965 4.95 27.28C4.40235 26.766 3.98449 26.1363 3.729 25.44C3.32616 24.4722 3.10273 23.4431 3.069 22.4C3.069 20.8 2.97 20.208 2.97 16C2.97 11.792 2.97 11.2 3.069 9.6C3.0764 8.56169 3.27187 7.53271 3.6465 6.56C3.93698 5.88466 4.38284 5.28265 4.95 4.8C5.45129 4.24987 6.07082 3.81295 6.765 3.52C7.77076 3.16807 8.8308 2.98413 9.9 2.976C11.55 2.976 12.1605 2.88 16.5 2.88C20.8395 2.88 21.45 2.88 23.1 2.976C24.1474 2.98765 25.1851 3.17159 26.169 3.52C26.9188 3.78984 27.5918 4.22855 28.1325 4.8C28.6732 5.29149 29.0957 5.89237 29.37 6.56C29.7367 7.53429 29.9265 8.56285 29.931 9.6C30.0135 11.2 30.03 11.792 30.03 16C30.03 20.208 30.0135 20.8 29.931 22.4ZM16.5 7.792C14.8266 7.79516 13.1917 8.27924 11.8019 9.18307C10.4121 10.0869 9.32972 11.3699 8.6916 12.87C8.05347 14.3701 7.88819 16.0199 8.21666 17.6111C8.54513 19.2022 9.35259 20.6633 10.537 21.8096C11.7215 22.9559 13.2297 23.736 14.8712 24.0514C16.5127 24.3668 18.2138 24.2034 19.7595 23.5817C21.3052 22.9599 22.6262 21.9079 23.5556 20.5585C24.485 19.209 24.981 17.6227 24.981 16C24.9832 14.9202 24.7652 13.8506 24.3395 12.8527C23.9139 11.8549 23.289 10.9485 22.5008 10.1857C21.7126 9.42287 20.7767 8.81868 19.7469 8.40789C18.717 7.99709 17.6136 7.78778 16.5 7.792ZM16.5 21.328C15.4133 21.328 14.351 21.0155 13.4474 20.4301C12.5439 19.8446 11.8396 19.0125 11.4237 18.0389C11.0079 17.0654 10.8991 15.9941 11.1111 14.9606C11.3231 13.927 11.8464 12.9777 12.6148 12.2325C13.3832 11.4874 14.3622 10.98 15.4281 10.7744C16.4939 10.5688 17.5987 10.6743 18.6027 11.0776C19.6066 11.4808 20.4648 12.1637 21.0685 13.0399C21.6723 13.9161 21.9945 14.9462 21.9945 16C21.9945 16.6997 21.8524 17.3925 21.5763 18.0389C21.3001 18.6854 20.8954 19.2727 20.3852 19.7675C19.875 20.2622 19.2693 20.6547 18.6027 20.9224C17.936 21.1902 17.2215 21.328 16.5 21.328Z" fill="white"/>
</svg>
