<svg width="31" height="32" viewBox="0 0 31 32" fill="none" xmlns="http://www.w3.org/2000/svg">
<path d="M28.7077 0.000223726H2.29225C1.99532 -0.00400761 1.70048 0.051819 1.42457 0.164516C1.14867 0.277212 0.897103 0.444571 0.684242 0.657034C0.47138 0.869497 0.301395 1.1229 0.183991 1.40278C0.0665882 1.68266 0.00406741 1.98352 0 2.28819V29.7118C0.00406741 30.0165 0.0665882 30.3173 0.183991 30.5972C0.301395 30.8771 0.47138 31.1305 0.684242 31.343C0.897103 31.5554 1.14867 31.7228 1.42457 31.8355C1.70048 31.9482 1.99532 32.004 2.29225 31.9998H28.7077C29.0047 32.004 29.2995 31.9482 29.5754 31.8355C29.8513 31.7228 30.1029 31.5554 30.3158 31.343C30.5286 31.1305 30.6986 30.8771 30.816 30.5972C30.9334 30.3173 30.9959 30.0165 31 29.7118V2.28819C30.9959 1.98352 30.9334 1.68266 30.816 1.40278C30.6986 1.1229 30.5286 0.869497 30.3158 0.657034C30.1029 0.444571 29.8513 0.277212 29.5754 0.164516C29.2995 0.051819 29.0047 -0.00400761 28.7077 0.000223726ZM9.40292 26.7838H4.72485V12.3841H9.40292V26.7838ZM7.06388 10.3681C6.41872 10.3681 5.79998 10.1051 5.34378 9.63703C4.88758 9.16894 4.63129 8.53409 4.63129 7.87211C4.63129 7.21014 4.88758 6.57528 5.34378 6.1072C5.79998 5.63912 6.41872 5.37615 7.06388 5.37615C7.40647 5.33629 7.75339 5.37112 8.08195 5.47836C8.4105 5.58561 8.71327 5.76285 8.97044 5.99848C9.22761 6.23411 9.43336 6.52282 9.57425 6.8457C9.71513 7.16858 9.78795 7.51835 9.78795 7.87211C9.78795 8.22587 9.71513 8.57565 9.57425 8.89853C9.43336 9.22141 9.22761 9.51012 8.97044 9.74575C8.71327 9.98138 8.4105 10.1586 8.08195 10.2659C7.75339 10.3731 7.40647 10.4079 7.06388 10.3681ZM26.2752 26.7838H21.5971V19.056C21.5971 17.12 20.9266 15.856 19.2269 15.856C18.7008 15.86 18.1886 16.0292 17.7593 16.3411C17.3299 16.6529 17.004 17.0923 16.8255 17.6C16.7034 17.976 16.6505 18.3721 16.6695 18.768V26.7679H11.9914C11.9914 26.7679 11.9914 13.68 11.9914 12.3681H16.6695V14.4C17.0945 13.6434 17.7126 13.0201 18.4572 12.5972C19.2019 12.1743 20.0448 11.9678 20.8954 12.0001C24.0141 12.0001 26.2752 14.064 26.2752 18.496V26.7838Z" fill="white"/>
</svg>
