<svg width="238" height="193" viewBox="0 0 238 193" fill="none" xmlns="http://www.w3.org/2000/svg">
<path d="M86.7451 1.87595C43.4341 9.50188 11.6475 32.2526 2.52936 61.9937C-1.90304 75.9746 -0.510002 87.1593 6.70849 96.6917C12.7872 104.572 20.259 108.003 32.0365 108.131C43.4341 108.131 51.2858 105.97 72.1815 97.073C90.291 89.3199 94.8501 87.9219 108.147 86.2696C120.431 84.7444 132.209 85.8883 135.881 88.9386C138.668 91.3535 138.668 91.3535 136.261 93.26C134.362 94.6581 130.436 95.1665 121.065 95.1665C99.5357 95.1665 84.5922 101.14 81.1729 111.181C78.8934 117.663 80.0331 122.493 84.8455 126.941C90.4176 132.152 98.5226 133.932 115.239 133.805C153.231 133.296 177.293 117.282 177.293 92.4974C177.293 84.6173 172.48 73.6868 166.528 67.9673C154.244 55.893 138.034 51.4445 109.54 52.3342C88.0115 52.9697 80.9196 54.4949 61.417 62.7563C44.9538 69.7467 44.9538 69.6196 43.1809 68.4757C36.9755 64.7899 54.3252 51.9529 74.9675 44.8353C120.938 29.2022 178.939 42.9289 195.402 73.3055C202.494 86.2696 201.354 94.4039 190.59 110.418C179.192 127.068 180.079 139.016 194.516 163.419C199.075 171.044 202.494 178.035 202.368 179.052C202.114 180.068 200.468 181.085 198.695 181.339C195.402 181.721 190.083 177.908 169.061 159.86C160.45 152.488 149.432 146.896 139.301 144.862C135.502 144.1 123.471 143.591 112.706 143.845C96.1164 144.1 91.9373 143.718 85.6053 141.685C72.3081 137.236 65.2162 127.45 66.7359 115.756C67.7491 107.749 60.9105 104.826 57.2379 111.689C55.2117 115.629 56.0982 127.958 58.7576 133.169C62.3035 139.905 73.0679 148.294 82.0594 151.344C89.4045 153.759 93.5836 154.14 113.34 154.267C143.353 154.522 150.192 156.809 166.782 171.68C190.59 193.16 200.975 197.354 209.839 188.965C215.665 183.5 213.512 175.112 200.975 153.124C194.263 141.685 191.983 133.169 193.756 126.814C194.516 124.399 197.555 118.807 200.721 114.358C208.066 103.809 210.599 95.9291 209.966 85.7612C208.7 66.188 191.476 47.1231 165.389 36.701C148.292 29.8377 140.694 28.5667 116.506 28.4396C97.2562 28.4396 92.8238 28.8209 83.0725 31.49C48.2465 40.6411 24.818 58.8162 30.3902 72.4158C34.4427 82.0753 41.4079 82.2024 64.8363 72.7971C87.3783 63.7731 98.5226 61.6124 118.405 62.5021C149.812 63.646 166.655 74.5765 166.402 93.3871C166.148 109.783 150.445 120.459 122.838 123.001C101.182 125.035 87.3783 121.222 91.0508 114.358C94.0902 108.766 106.754 105.334 124.99 105.334C141.327 105.334 148.166 101.14 148.166 91.2264C148.166 80.2959 138.414 75.4662 116.506 75.5933C99.0292 75.7204 90.291 77.8811 66.4827 88.049C46.3469 96.5646 40.1415 98.2169 30.3902 97.4543C21.2721 96.8188 16.9663 94.0226 12.9139 86.1425C9.11465 79.0249 9.87449 70.0009 15.1934 58.562C22.4119 43.056 34.1894 32.3797 54.7051 22.8473C87.5049 7.3412 133.475 6.07021 169.061 19.5427C200.721 31.49 223.77 56.1472 227.316 81.9482C229.215 96.4375 222.63 114.231 210.852 126.051C203.761 133.169 202.368 136.855 205.787 139.651C208.7 142.066 211.992 140.159 219.971 131.644C235.294 114.994 241.373 93.26 236.18 73.1784C226.936 37.5907 191.35 10.1374 143.48 1.74886C129.929 -0.666031 100.422 -0.538925 86.7451 1.87595Z" fill="white"/>
</svg>
