<svg width="71" height="57" viewBox="0 0 71 57" fill="none" xmlns="http://www.w3.org/2000/svg">
<path d="M25.5795 0.553486C12.8079 2.80349 3.43461 9.51598 0.74586 18.291C-0.561171 22.416 -0.15039 25.716 1.9782 28.5285C3.7707 30.8535 5.97399 31.866 9.44695 31.9035C12.8079 31.9035 15.1232 31.266 21.2849 28.641C26.6251 26.3535 27.9695 25.941 31.8905 25.4535C35.5129 25.0035 38.9859 25.341 40.0688 26.241C40.8904 26.9535 40.8904 26.9535 40.1809 27.516C39.6207 27.9285 38.4631 28.0785 35.6996 28.0785C29.3512 28.0785 24.9446 29.841 23.9363 32.8035C23.2641 34.716 23.6002 36.141 25.0193 37.4535C26.6624 38.991 29.0524 39.516 33.9818 39.4785C45.1849 39.3285 52.2802 34.6035 52.2802 27.291C52.2802 24.966 50.8612 21.741 49.106 20.0535C45.4837 16.491 40.7037 15.1785 32.3013 15.441C25.9529 15.6285 23.8616 16.0785 18.1107 18.516C13.256 20.5785 13.256 20.541 12.7332 20.2035C10.9034 19.116 16.0195 15.3285 22.1065 13.2285C35.6623 8.61599 52.7657 12.666 57.6204 21.6285C59.7116 25.4535 59.3755 27.8535 56.2013 32.5785C52.8404 37.491 53.1018 41.016 57.359 48.216C58.7034 50.466 59.7116 52.5285 59.6743 52.8285C59.5996 53.1285 59.1141 53.4285 58.5913 53.5035C57.6204 53.616 56.052 52.491 49.8529 47.166C47.3135 44.991 44.0646 43.341 41.0771 42.741C39.9568 42.516 36.4091 42.366 33.2349 42.441C28.3429 42.516 27.1105 42.4035 25.2434 41.8035C21.3223 40.491 19.231 37.6035 19.6791 34.1535C19.9779 31.791 17.9613 30.9285 16.8784 32.9535C16.2809 34.116 16.5423 37.7535 17.3265 39.291C18.3721 41.2785 21.5463 43.7535 24.1977 44.6535C26.3637 45.366 27.596 45.4785 33.4216 45.516C42.2721 45.591 44.2887 46.266 49.1807 50.6535C56.2013 56.991 59.2635 58.2285 61.8776 55.7535C63.5954 54.141 62.9605 51.666 59.2635 45.1785C57.2843 41.8035 56.6121 39.291 57.1349 37.416C57.359 36.7035 58.2552 35.0535 59.1888 33.741C61.3548 30.6285 62.1016 28.3035 61.9149 25.3035C61.5415 19.5285 56.4627 13.9035 48.7699 10.8285C43.7285 8.80349 41.4879 8.42849 34.3552 8.39098C28.679 8.39098 27.372 8.50348 24.4965 9.29099C14.227 11.991 7.31836 17.3535 8.96149 21.366C10.1565 24.216 12.2104 24.2535 19.119 21.4785C25.7662 18.816 29.0524 18.1785 34.9154 18.441C44.1766 18.7785 49.1434 22.0035 49.0687 27.5535C48.994 32.391 44.3634 35.541 36.2224 36.291C29.8366 36.891 25.7662 35.766 26.8491 33.741C27.7454 32.091 31.4798 31.0785 36.8573 31.0785C41.6746 31.0785 43.6912 29.841 43.6912 26.916C43.6912 23.691 40.8157 22.266 34.3552 22.3035C29.2018 22.341 26.6251 22.9785 19.6045 25.9785C13.6668 28.491 11.837 28.9785 8.96149 28.7535C6.27274 28.566 5.00305 27.741 3.80805 25.416C2.68774 23.316 2.9118 20.6535 4.48024 17.2785C6.60883 12.7035 10.0818 9.55349 16.1315 6.74099C25.8035 2.16599 39.3593 1.79099 49.8529 5.76598C59.1888 9.29099 65.9854 16.566 67.031 24.1785C67.5912 28.4535 65.6493 33.7035 62.1763 37.191C60.0851 39.291 59.6743 40.3785 60.6826 41.2035C61.5415 41.916 62.5124 41.3535 64.8651 38.841C69.3837 33.9285 71.1762 27.516 69.6451 21.591C66.919 11.091 56.4254 2.99099 42.3095 0.515984C38.3137 -0.196514 29.6126 -0.159016 25.5795 0.553486Z" fill="#CEB7FF"/>
</svg>
